<svg width="1080" height="1080" viewBox="0 0 1080 1080" fill="none" xmlns="http://www.w3.org/2000/svg">
<g filter="url(#filter0_i_323_2)">
<g clip-path="url(#clip0_323_2)">
<rect width="1080" height="1080" rx="200" fill="#D6D6D6"/>
<g filter="url(#filter1_f_323_2)">
<ellipse cx="85.5" cy="89.5" rx="751.5" ry="745.5" fill="url(#paint0_radial_323_2)" fill-opacity="0.75"/>
</g>
<g filter="url(#filter2_d_323_2)">
<mask id="path-3-outside-1_323_2" maskUnits="userSpaceOnUse" x="244" y="264" width="583" height="602" fill="black">
<rect fill="white" x="244" y="264" width="583" height="602"/>
<path d="M811.7 410C811.7 427.4 809 443 803.6 456.8C798.8 470.6 791.9 482.9 782.9 493.7C773.9 504.5 763.4 514.1 751.4 522.5C739.4 530.9 726.2 538.7 711.8 545.9C718.4 548.3 726.2 552.2 735.2 557.6C744.2 562.4 752.9 569.3 761.3 578.3C769.7 587.3 776.6 599 782 613.4C788 627.2 791 644.3 791 664.7C791 691.7 785.3 716.6 773.9 739.4C762.5 762.2 745.4 782 722.6 798.8C700.4 815 672.8 827.9 639.8 837.5C607.4 846.5 569.9 851 527.3 851H260L381.5 279.5H618.2C641.6 279.5 664.7 281.3 687.5 284.9C710.9 287.9 731.6 294.2 749.6 303.8C768.2 313.4 783.2 326.9 794.6 344.3C806 361.1 811.7 383 811.7 410ZM566.9 518.9C580.1 518.9 591.2 515 600.2 507.2C609.8 499.4 617.6 489.8 623.6 478.4C629.6 466.4 634.1 453.8 637.1 440.6C640.1 426.8 641.6 414.5 641.6 403.7C641.6 386.3 637.4 371.6 629 359.6C621.2 347 608.6 340.7 591.2 340.7H564.2L525.5 518.9H566.9ZM502.1 794.3C520.1 794.3 535.1 789.2 547.1 779C559.1 768.8 569 756.2 576.8 741.2C584.6 726.2 590 710.6 593 694.4C596.6 677.6 598.4 662.9 598.4 650.3C598.4 629.3 593.9 612.8 584.9 600.8C576.5 588.2 562.7 581.9 543.5 581.9H510.2L466.1 794.3H502.1Z"/>
</mask>
<path d="M811.7 410C811.7 427.4 809 443 803.6 456.8C798.8 470.6 791.9 482.9 782.9 493.7C773.9 504.5 763.4 514.1 751.4 522.5C739.4 530.9 726.2 538.7 711.8 545.9C718.4 548.3 726.2 552.2 735.2 557.6C744.2 562.4 752.9 569.3 761.3 578.3C769.7 587.3 776.6 599 782 613.4C788 627.2 791 644.3 791 664.7C791 691.7 785.3 716.6 773.9 739.4C762.5 762.2 745.4 782 722.6 798.8C700.4 815 672.8 827.9 639.8 837.5C607.4 846.5 569.9 851 527.3 851H260L381.5 279.5H618.2C641.6 279.5 664.7 281.3 687.5 284.9C710.9 287.9 731.6 294.2 749.6 303.8C768.2 313.4 783.2 326.9 794.6 344.3C806 361.1 811.7 383 811.7 410ZM566.9 518.9C580.1 518.9 591.2 515 600.2 507.2C609.8 499.4 617.6 489.8 623.6 478.4C629.6 466.4 634.1 453.8 637.1 440.6C640.1 426.8 641.6 414.5 641.6 403.7C641.6 386.3 637.4 371.6 629 359.6C621.2 347 608.6 340.7 591.2 340.7H564.2L525.5 518.9H566.9ZM502.1 794.3C520.1 794.3 535.1 789.2 547.1 779C559.1 768.8 569 756.2 576.8 741.2C584.6 726.2 590 710.6 593 694.4C596.6 677.6 598.4 662.9 598.4 650.3C598.4 629.3 593.9 612.8 584.9 600.8C576.5 588.2 562.7 581.9 543.5 581.9H510.2L466.1 794.3H502.1Z" fill="#0E5BB4"/>
<path d="M803.6 456.8L789.631 451.334C789.562 451.512 789.495 451.692 789.433 451.872L803.6 456.8ZM751.4 522.5L742.798 510.212L742.798 510.212L751.4 522.5ZM711.8 545.9L705.092 532.484C699.731 535.164 696.481 540.778 696.825 546.761C697.169 552.744 701.041 557.949 706.674 559.997L711.8 545.9ZM735.2 557.6L727.483 570.462C727.699 570.592 727.919 570.717 728.141 570.835L735.2 557.6ZM761.3 578.3L750.334 588.535L750.334 588.535L761.3 578.3ZM782 613.4L767.955 618.667C768.045 618.907 768.142 619.145 768.244 619.381L782 613.4ZM773.9 739.4L760.484 732.692L760.484 732.692L773.9 739.4ZM722.6 798.8L731.442 810.917C731.461 810.903 731.479 810.89 731.498 810.876L722.6 798.8ZM639.8 837.5L643.815 851.953C643.873 851.937 643.932 851.92 643.99 851.903L639.8 837.5ZM260 851L245.328 847.881C244.387 852.307 245.495 856.922 248.343 860.44C251.191 863.957 255.474 866 260 866V851ZM381.5 279.5V264.5C374.418 264.5 368.301 269.453 366.828 276.381L381.5 279.5ZM687.5 284.9L685.161 299.716C685.304 299.739 685.448 299.76 685.593 299.778L687.5 284.9ZM749.6 303.8L742.541 317.035C742.601 317.067 742.66 317.098 742.72 317.129L749.6 303.8ZM794.6 344.3L782.053 352.52C782.098 352.588 782.142 352.655 782.188 352.722L794.6 344.3ZM600.2 507.2L590.741 495.558C590.618 495.658 590.496 495.761 590.376 495.865L600.2 507.2ZM623.6 478.4L636.874 485.386C636.922 485.294 636.97 485.201 637.016 485.108L623.6 478.4ZM637.1 440.6L651.727 443.924C651.737 443.878 651.748 443.832 651.758 443.786L637.1 440.6ZM629 359.6L616.246 367.495C616.395 367.735 616.55 367.971 616.712 368.202L629 359.6ZM564.2 340.7V325.7C557.142 325.7 551.04 330.62 549.542 337.517L564.2 340.7ZM525.5 518.9L510.842 515.717C509.879 520.15 510.975 524.782 513.822 528.314C516.67 531.846 520.963 533.9 525.5 533.9V518.9ZM547.1 779L537.385 767.571L537.385 767.571L547.1 779ZM576.8 741.2L590.108 748.12L590.108 748.12L576.8 741.2ZM593 694.4L578.333 691.257C578.304 691.394 578.276 691.531 578.251 691.669L593 694.4ZM584.9 600.8L572.419 609.12C572.573 609.351 572.734 609.578 572.9 609.8L584.9 600.8ZM510.2 581.9V566.9C503.091 566.9 496.958 571.89 495.513 578.851L510.2 581.9ZM466.1 794.3L451.413 791.251C450.496 795.67 451.617 800.267 454.465 803.767C457.314 807.268 461.587 809.3 466.1 809.3V794.3ZM796.7 410C796.7 425.85 794.242 439.551 789.631 451.334L817.569 462.266C823.758 446.449 826.7 428.95 826.7 410H796.7ZM789.433 451.872C785.202 464.035 779.176 474.738 771.377 484.097L794.423 503.303C804.624 491.062 812.398 477.165 817.767 461.728L789.433 451.872ZM771.377 484.097C763.262 493.835 753.755 502.541 742.798 510.212L760.002 534.788C773.045 525.659 784.538 515.165 794.423 503.303L771.377 484.097ZM742.798 510.212C731.457 518.151 718.898 525.581 705.092 532.484L718.508 559.316C733.502 551.819 747.343 543.649 760.002 534.788L742.798 510.212ZM706.674 559.997C712.049 561.951 718.944 565.339 727.483 570.462L742.917 544.738C733.456 539.061 724.751 534.649 716.926 531.803L706.674 559.997ZM728.141 570.835C735.416 574.715 742.836 580.501 750.334 588.535L772.266 568.065C762.964 558.099 752.984 550.085 742.259 544.365L728.141 570.835ZM750.334 588.535C757.103 595.787 763.08 605.665 767.955 618.667L796.045 608.133C790.121 592.335 782.297 578.813 772.266 568.065L750.334 588.535ZM768.244 619.381C773.187 630.75 776 645.668 776 664.7H806C806 642.932 802.813 623.65 795.756 607.419L768.244 619.381ZM776 664.7C776 689.513 770.781 712.098 760.484 732.692L787.316 746.108C799.819 721.102 806 693.887 806 664.7H776ZM760.484 732.692C750.258 753.144 734.808 771.173 713.702 786.724L731.498 810.876C755.992 792.827 774.743 771.256 787.316 746.108L760.484 732.692ZM713.758 786.683C693.267 801.636 667.34 813.866 635.61 823.097L643.99 851.903C678.26 841.934 707.533 828.364 731.442 810.917L713.758 786.683ZM635.785 823.047C604.986 831.603 568.886 836 527.3 836V866C570.914 866 609.814 861.397 643.815 851.953L635.785 823.047ZM527.3 836H260V866H527.3V836ZM274.672 854.119L396.172 282.619L366.828 276.381L245.328 847.881L274.672 854.119ZM381.5 294.5H618.2V264.5H381.5V294.5ZM618.2 294.5C640.827 294.5 663.145 296.24 685.161 299.716L689.839 270.084C666.255 266.36 642.373 264.5 618.2 264.5V294.5ZM685.593 299.778C707.468 302.583 726.374 308.413 742.541 317.035L756.659 290.565C736.826 279.987 714.332 273.217 689.407 270.022L685.593 299.778ZM742.72 317.129C759.038 325.551 772.079 337.297 782.053 352.52L807.147 336.08C794.321 316.503 777.363 301.249 756.48 290.471L742.72 317.129ZM782.188 352.722C791.427 366.338 796.7 385.03 796.7 410H826.7C826.7 380.97 820.573 355.862 807.012 335.877L782.188 352.722ZM566.9 533.9C583.289 533.9 597.996 528.96 610.024 518.535L590.376 495.865C584.404 501.04 576.911 503.9 566.9 503.9V533.9ZM609.659 518.842C620.897 509.711 629.97 498.504 636.874 485.386L610.326 471.414C605.23 481.096 598.703 489.089 590.741 495.558L609.659 518.842ZM637.016 485.108C643.559 472.023 648.463 458.286 651.727 443.924L622.473 437.276C619.737 449.314 615.641 460.777 610.184 471.692L637.016 485.108ZM651.758 443.786C654.92 429.24 656.6 415.84 656.6 403.7H626.6C626.6 413.16 625.28 424.36 622.442 437.414L651.758 443.786ZM656.6 403.7C656.6 383.814 651.765 365.964 641.288 350.998L616.712 368.202C623.035 377.236 626.6 388.786 626.6 403.7H656.6ZM641.754 351.705C630.704 333.855 612.733 325.7 591.2 325.7V355.7C604.467 355.7 611.696 360.145 616.246 367.495L641.754 351.705ZM591.2 325.7H564.2V355.7H591.2V325.7ZM549.542 337.517L510.842 515.717L540.158 522.083L578.858 343.883L549.542 337.517ZM525.5 533.9H566.9V503.9H525.5V533.9ZM502.1 809.3C523.12 809.3 541.718 803.261 556.815 790.429L537.385 767.571C528.482 775.139 517.08 779.3 502.1 779.3V809.3ZM556.815 790.429C570.399 778.883 581.48 764.714 590.108 748.12L563.492 734.28C556.52 747.686 547.801 758.717 537.385 767.571L556.815 790.429ZM590.108 748.12C598.575 731.838 604.472 714.829 607.749 697.131L578.251 691.669C575.528 706.371 570.625 720.562 563.492 734.28L590.108 748.12ZM607.667 697.543C611.414 680.055 613.4 664.259 613.4 650.3H583.4C583.4 661.541 581.786 675.145 578.333 691.257L607.667 697.543ZM613.4 650.3C613.4 627.321 608.491 607.254 596.9 591.8L572.9 609.8C579.309 618.346 583.4 631.279 583.4 650.3H613.4ZM597.381 592.479C585.452 574.586 566.2 566.9 543.5 566.9V596.9C559.2 596.9 567.548 601.814 572.419 609.12L597.381 592.479ZM543.5 566.9H510.2V596.9H543.5V566.9ZM495.513 578.851L451.413 791.251L480.787 797.349L524.887 584.949L495.513 578.851ZM466.1 809.3H502.1V779.3H466.1V809.3Z" fill="#8AC0FF" mask="url(#path-3-outside-1_323_2)"/>
</g>
<g filter="url(#filter3_d_323_2)">
<path d="M381.5 279.245L606 279.245C606 279.245 659 276.245 721 291.245C783 306.245 803.166 360.245 803.166 360.245L555.69 381.965C541.145 383.241 528.124 391.495 520.763 404.104L260 850.745L381.5 279.245Z" fill="#297BD9"/>
</g>
<g filter="url(#filter4_d_323_2)">
<path d="M381.5 279.5L606 279.5C606 279.5 659 276.5 721 291.5C783 306.5 803.166 360.5 803.166 360.5L507.117 345.243C492.599 344.495 479.13 352.798 473.277 366.105L260 851L381.5 279.5Z" fill="#52A3FF"/>
</g>
</g>
</g>
<defs>
<filter id="filter0_i_323_2" x="-45" y="-45" width="1125" height="1125" filterUnits="userSpaceOnUse" color-interpolation-filters="sRGB">
<feFlood flood-opacity="0" result="BackgroundImageFix"/>
<feBlend mode="normal" in="SourceGraphic" in2="BackgroundImageFix" result="shape"/>
<feColorMatrix in="SourceAlpha" type="matrix" values="0 0 0 0 0 0 0 0 0 0 0 0 0 0 0 0 0 0 127 0" result="hardAlpha"/>
<feOffset dx="-50" dy="-50"/>
<feGaussianBlur stdDeviation="22.5"/>
<feComposite in2="hardAlpha" operator="arithmetic" k2="-1" k3="1"/>
<feColorMatrix type="matrix" values="0 0 0 0 0.668541 0 0 0 0 0.669932 0 0 0 0 0.676885 0 0 0 1 0"/>
<feBlend mode="normal" in2="shape" result="effect1_innerShadow_323_2"/>
</filter>
<filter id="filter1_f_323_2" x="-766" y="-756" width="1703" height="1691" filterUnits="userSpaceOnUse" color-interpolation-filters="sRGB">
<feFlood flood-opacity="0" result="BackgroundImageFix"/>
<feBlend mode="normal" in="SourceGraphic" in2="BackgroundImageFix" result="shape"/>
<feGaussianBlur stdDeviation="50" result="effect1_foregroundBlur_323_2"/>
</filter>
<filter id="filter2_d_323_2" x="256" y="279.5" width="581.7" height="603.5" filterUnits="userSpaceOnUse" color-interpolation-filters="sRGB">
<feFlood flood-opacity="0" result="BackgroundImageFix"/>
<feColorMatrix in="SourceAlpha" type="matrix" values="0 0 0 0 0 0 0 0 0 0 0 0 0 0 0 0 0 0 127 0" result="hardAlpha"/>
<feOffset dx="11" dy="17"/>
<feGaussianBlur stdDeviation="7.5"/>
<feComposite in2="hardAlpha" operator="out"/>
<feColorMatrix type="matrix" values="0 0 0 0 0 0 0 0 0 0 0 0 0 0 0 0 0 0 0.12 0"/>
<feBlend mode="normal" in2="BackgroundImageFix" result="effect1_dropShadow_323_2"/>
<feBlend mode="normal" in="SourceGraphic" in2="effect1_dropShadow_323_2" result="shape"/>
</filter>
<filter id="filter3_d_323_2" x="249" y="275" width="573.166" height="601.745" filterUnits="userSpaceOnUse" color-interpolation-filters="sRGB">
<feFlood flood-opacity="0" result="BackgroundImageFix"/>
<feColorMatrix in="SourceAlpha" type="matrix" values="0 0 0 0 0 0 0 0 0 0 0 0 0 0 0 0 0 0 127 0" result="hardAlpha"/>
<feOffset dx="4" dy="11"/>
<feGaussianBlur stdDeviation="7.5"/>
<feComposite in2="hardAlpha" operator="out"/>
<feColorMatrix type="matrix" values="0 0 0 0 0 0 0 0 0 0 0 0 0 0 0 0 0 0 0.12 0"/>
<feBlend mode="normal" in2="BackgroundImageFix" result="effect1_dropShadow_323_2"/>
<feBlend mode="normal" in="SourceGraphic" in2="effect1_dropShadow_323_2" result="shape"/>
</filter>
<filter id="filter4_d_323_2" x="249" y="275.255" width="573.166" height="601.745" filterUnits="userSpaceOnUse" color-interpolation-filters="sRGB">
<feFlood flood-opacity="0" result="BackgroundImageFix"/>
<feColorMatrix in="SourceAlpha" type="matrix" values="0 0 0 0 0 0 0 0 0 0 0 0 0 0 0 0 0 0 127 0" result="hardAlpha"/>
<feOffset dx="4" dy="11"/>
<feGaussianBlur stdDeviation="7.5"/>
<feComposite in2="hardAlpha" operator="out"/>
<feColorMatrix type="matrix" values="0 0 0 0 0 0 0 0 0 0 0 0 0 0 0 0 0 0 0.12 0"/>
<feBlend mode="normal" in2="BackgroundImageFix" result="effect1_dropShadow_323_2"/>
<feBlend mode="normal" in="SourceGraphic" in2="effect1_dropShadow_323_2" result="shape"/>
</filter>
<radialGradient id="paint0_radial_323_2" cx="0" cy="0" r="1" gradientUnits="userSpaceOnUse" gradientTransform="translate(85.5 89.5) rotate(90) scale(745.5 751.5)">
<stop offset="0.466667" stop-color="white"/>
<stop offset="1" stop-color="white" stop-opacity="0"/>
</radialGradient>
<clipPath id="clip0_323_2">
<rect width="1080" height="1080" rx="200" fill="white"/>
</clipPath>
</defs>
</svg>
